Video
ID                               : 1
Format                           : AVC
Format/Info                      : Advanced Video Codec
Format profile                   : High@L3.0
Format settings, CABAC           : No
Format settings, ReFrames        : 1 frame
Codec ID                         : avc1
Codec ID/Info                    : Advanced Video Coding
Duration                         : 4mn 56s
Bit rate mode                    : Variable
Bit rate                         : 1 878 Kbps
Width                            : 1 280 pixels
Height                           : 720 pixels
Display aspect ratio             : 16:9
Frame rate mode                  : Constant
Frame rate                       : 25.000 fps
Color space                      : YUV
Chroma subsampling               : 4:2:0
Bit depth                        : 8 bits
Scan type                        : Progressive
Bits/(Pixel*Frame)               : 0.082
Stream size                      : 66.4 MiB (91%)
Language                         : English


Audio
ID                               : 2
Format                           : AAC
Format/Info                      : Advanced Audio Codec
Format profile                   : LC
Codec ID                         : 40
Duration                         : 4mn 54s
Bit rate mode                    : Variable
Bit rate                         : 192 Kbps
Maximum bit rate                 : 270 Kbps
Channel(s)                       : 2 channels
Channel positions                : Front: L R
Sampling rate                    : 48.0 KHz
Compression mode                 : Lossy
Stream size                      : 6.66 MiB (9%)
Language                         : English
